<?xml version="1.0" encoding="utf-8"?>
<!-- Generator: Adobe Illustrator 19.0.0, SVG Export Plug-In . SVG Version: 6.00 Build 0)  -->
<svg version="1.1" id="Camada_1" xmlns="http://www.w3.org/2000/svg" xmlns:xlink="http://www.w3.org/1999/xlink" x="0px" y="0px"
	 viewBox="0 0 30 30" style="enable-background:new 0 0 30 30;" xml:space="preserve">
<style type="text/css">
	.st0{fill:#32A041;}
	.st1{fill:#FCFCFC;}
	.st2{fill:#C8191E;}
</style>
<g id="XMLID_25_">
	<circle id="XMLID_1_" class="st0" cx="15" cy="15" r="15"/>
	<g id="XMLID_13_">
		<path id="XMLID_5_" class="st1" d="M17.3,9.8h-2.9c-0.5,0-0.9-0.4-0.9-0.9V6c0-0.5,0.4-0.9,0.9-0.9h2.9c0.5,0,0.9,0.4,0.9,0.9v2.9
			C18.3,9.4,17.8,9.8,17.3,9.8z"/>
		<path id="XMLID_6_" class="st1" d="M17.3,14.8h-2.9c-0.5,0-0.9-0.4-0.9-0.9V11c0-0.5,0.4-0.9,0.9-0.9h2.9c0.5,0,0.9,0.4,0.9,0.9
			v2.9C18.3,14.4,17.8,14.8,17.3,14.8z"/>
		<path id="XMLID_7_" class="st1" d="M17.3,19.9h-2.9c-0.5,0-0.9-0.4-0.9-0.9v-2.9c0-0.5,0.4-0.9,0.9-0.9h2.9c0.5,0,0.9,0.4,0.9,0.9
			V19C18.3,19.5,17.8,19.9,17.3,19.9z"/>
		<path id="XMLID_8_" class="st1" d="M17.3,24.9h-2.9c-0.5,0-0.9-0.4-0.9-0.9v-2.9c0-0.5,0.4-0.9,0.9-0.9h2.9c0.5,0,0.9,0.4,0.9,0.9
			V24C18.3,24.5,17.8,24.9,17.3,24.9z"/>
		<path id="XMLID_9_" class="st1" d="M22.4,9.8h-2.9c-0.5,0-0.9-0.4-0.9-0.9V6c0-0.5,0.4-0.9,0.9-0.9h2.9c0.5,0,0.9,0.4,0.9,0.9v2.9
			C23.3,9.4,22.9,9.8,22.4,9.8z"/>
		<path id="XMLID_10_" class="st1" d="M22.4,19.9h-2.9c-0.5,0-0.9-0.4-0.9-0.9v-2.9c0-0.5,0.4-0.9,0.9-0.9h2.9
			c0.5,0,0.9,0.4,0.9,0.9V19C23.3,19.5,22.9,19.9,22.4,19.9z"/>
		<path id="XMLID_14_" class="st1" d="M12.3,14.8H9.4c-0.5,0-0.9-0.4-0.9-0.9V11c0-0.5,0.4-0.9,0.9-0.9h2.9c0.5,0,0.9,0.4,0.9,0.9
			v2.9C13.2,14.4,12.8,14.8,12.3,14.8z"/>
		<path id="XMLID_12_" class="st1" d="M12.3,19.9H9.4c-0.5,0-0.9-0.4-0.9-0.9v-2.9c0-0.5,0.4-0.9,0.9-0.9h2.9c0.5,0,0.9,0.4,0.9,0.9
			V19C13.2,19.5,12.8,19.9,12.3,19.9z"/>
		<path id="XMLID_11_" class="st1" d="M12.3,24.9H9.4c-0.5,0-0.9-0.4-0.9-0.9v-2.9c0-0.5,0.4-0.9,0.9-0.9h2.9c0.5,0,0.9,0.4,0.9,0.9
			V24C13.2,24.5,12.8,24.9,12.3,24.9z"/>
		<circle id="XMLID_15_" class="st2" cx="10.8" cy="7.5" r="2.3"/>
	</g>
</g>
</svg>
