<?xml version="1.0" encoding="utf-8"?>
<!-- Generator: Adobe Illustrator 19.0.0, SVG Export Plug-In . SVG Version: 6.00 Build 0)  -->
<svg version="1.1" id="Camada_1" xmlns="http://www.w3.org/2000/svg" xmlns:xlink="http://www.w3.org/1999/xlink" x="0px" y="0px"
	 viewBox="0 0 30 30" style="enable-background:new 0 0 30 30;" xml:space="preserve">
<style type="text/css">
	.st0{fill:#2B1C47;}
	.st1{fill:#FFFFFF;}
</style>
<g id="XMLID_2_">
	<circle id="XMLID_67_" class="st0" cx="15" cy="15" r="15"/>
	<g id="XMLID_16_">
		<path id="XMLID_86_" class="st1" d="M11.8,6c-1.1,0.1-2.3,0.6-3.2,1.3C8,7.7,7.4,8.4,7.1,9.1c-0.3,0.6-0.6,1.6-0.7,2.3l0,0.3
			l-0.1,0.1c-0.2,0.1-0.6,0.4-0.9,0.6c-0.5,0.5-0.8,1.1-1,1.9c-0.1,0.3-0.1,1.3,0,1.6c0.2,0.8,0.6,1.5,1.1,2c0.4,0.4,1.1,0.8,1.7,1
			c0.7,0.2,1.1,0.3,3.3,0.2c0.9,0,1.7,0,1.7,0c0,0,0.1-0.1,0.1-0.7v-0.7l-2,0c-1.9,0-2,0-2.2-0.1c-1-0.2-1.5-0.5-1.9-1.1
			c-0.3-0.5-0.4-0.9-0.4-1.4c0-0.8,0.2-1.3,0.8-1.8C6.8,13,7,12.9,7.4,12.7l0.3-0.2v-0.3c0-0.2,0-0.5,0-0.7c0.2-2.2,1.6-3.8,3.7-4.2
			c0.4-0.1,1.4-0.1,1.8,0c0.9,0.2,1.7,0.6,2.3,1.2c0.4,0.4,0.6,0.6,1,1.4c0.1,0.2,0.3,0.5,0.3,0.5l0.1,0.1l0.3-0.1
			c0.4-0.2,0.8-0.3,1.1-0.4c0.1,0,0.4,0,0.7,0c0.4,0,0.5,0,0.7,0.1c0.9,0.3,1.6,1.1,1.9,2.1c0.1,0.2,0.1,0.3,0.1,0.3
			s0.2,0.1,0.5,0.1c0.8,0.2,1,0.3,1.4,0.7c0.3,0.3,0.4,0.4,0.5,0.7c0.3,0.6,0.4,1.3,0.1,2c-0.2,0.6-0.5,1-0.9,1.3
			c-0.5,0.3-1.1,0.5-2.3,0.6l-0.5,0.1v0.7v0.7l0.5,0c0.6,0,1.3-0.1,1.7-0.2c0.4-0.1,0.6-0.2,1.1-0.4c0.8-0.5,1.3-0.9,1.6-1.6
			c0.2-0.4,0.3-0.7,0.4-1.1c0.1-0.3,0.1-1.3,0-1.6c-0.1-0.7-0.5-1.4-1-1.9c-0.3-0.3-0.8-0.6-1.5-0.9l-0.3-0.1L22.6,11
			c-0.5-1-1.1-1.5-2-2c-0.9-0.5-1.9-0.6-2.8-0.3c-0.2,0-0.2,0.1-0.3,0c0,0-0.2-0.2-0.3-0.4c-0.6-0.8-1.4-1.4-2.1-1.8
			C14.1,6.1,12.8,5.9,11.8,6z"/>
		<path id="XMLID_119_" class="st1" d="M12,8.2c-0.1,0-0.1,0.2-0.1,0.4c0,0.1-0.1,0.2-0.2,0.2c-0.1,0-0.2,0-0.3-0.2
			c-0.1-0.2-0.2-0.3-0.3-0.2l-0.1,0v0.3c0,0.3,0,0.3-0.1,0.4c-0.1,0.1-0.2,0.1-0.4-0.1c-0.2-0.2-0.2-0.2-0.4-0.1
			c-0.1,0.1-0.1,0.1,0,0.4l0.1,0.2l-0.1,0.1c-0.1,0.1-0.2,0.1-0.4,0C9.4,9.3,9.3,9.3,9.2,9.4C9.2,9.5,9.2,9.6,9.3,9.7
			c0.1,0.2,0.2,0.3,0.1,0.4c-0.1,0.1-0.1,0.1-0.3,0c-0.3-0.1-0.4-0.1-0.4,0.1c0,0.1,0,0.1,0.2,0.3C9,10.6,9,10.7,9,10.8
			s0,0.1-0.1,0.1C8.9,11,8.9,11,8.7,11c-0.3,0-0.4,0.1-0.4,0.2c0,0.1,0,0.2,0.3,0.3c0.2,0.1,0.3,0.2,0.2,0.3C8.8,12,8.7,12,8.5,12
			c-0.2,0-0.3,0.1-0.3,0.2c0,0.1,0.1,0.2,0.3,0.2c0.2,0,0.3,0.1,0.3,0.2c0,0.1,0,0.2-0.3,0.3c-0.1,0-0.2,0.1-0.2,0.1
			c-0.1,0.1-0.1,0.2,0,0.3c0.1,0.1,0.1,0.1,0.3,0.1c0.1,0,0.3,0,0.3,0C9,13.4,9,13.6,9,13.7c0,0-0.1,0.1-0.2,0.2
			c-0.2,0.1-0.2,0.2-0.1,0.3c0.1,0.1,0.1,0.1,0.2,0.1c0.1,0,0.2,0,0.2-0.1c0.2-0.1,0.3,0,0.4,0.1c0,0.1,0,0.1-0.2,0.4
			c-0.1,0.2-0.1,0.3,0,0.3c0.1,0,0.1,0.1,0.1,0.1c0,0,0.1-0.1,0.2-0.1c0.2-0.1,0.2-0.1,0.3-0.1c0.1,0,0.1,0.1,0.1,0.1l0.1,0.1
			l-0.1,0.2c-0.1,0.3-0.1,0.5,0.1,0.5c0.1,0,0.1-0.1,0.3-0.2c0.2-0.2,0.2-0.2,0.4-0.2c0.1,0.1,0.1,0.1,0.1,0.4c0,0.2,0,0.3,0.1,0.3
			c0.1,0.1,0.2,0.1,0.3,0c0,0,0.1-0.1,0.1-0.3l0.1-0.2h0.1c0.2,0,0.2,0,0.3,0.3c0.1,0.3,0.1,0.4,0.3,0.3c0.1,0,0.1-0.1,0.1-0.3
			c0-0.1,0-0.2,0.1-0.3c0.1-0.1,0.2-0.1,0.3-0.1c0,0,0.1,0.1,0.1,0.2c0.1,0.2,0.2,0.3,0.3,0.3c0.1,0,0.2,0,0.2-0.4
			c0-0.3,0-0.3,0.1-0.3c0.1-0.1,0.2-0.1,0.4,0.2c0.2,0.2,0.2,0.2,0.3,0.2c0.1,0,0.2-0.1,0.2-0.2c0,0,0-0.1-0.1-0.2
			c-0.1-0.2-0.1-0.3,0-0.4c0.1-0.1,0.2-0.1,0.5,0.1c0.2,0.1,0.3,0.1,0.3,0c0.1-0.1,0.1-0.2-0.1-0.4c-0.1-0.2-0.1-0.2-0.1-0.3
			c0.1-0.1,0.1-0.1,0.4-0.1l0.3,0.1l0.1-0.1c0.1,0,0.1-0.1,0.1-0.2c0-0.1,0-0.1-0.1-0.2c-0.2-0.2-0.3-0.2-0.3-0.3
			c0-0.2,0.1-0.2,0.4-0.2c0.3,0,0.4,0,0.4-0.2c0-0.1,0-0.1-0.2-0.2c-0.3-0.1-0.3-0.2-0.2-0.3c0-0.1,0.1-0.1,0.4-0.2
			c0.2-0.1,0.3-0.1,0.3-0.2c0-0.1-0.1-0.2-0.3-0.2c-0.3,0-0.3-0.1-0.3-0.2c-0.1-0.2,0-0.2,0.2-0.3c0.3-0.2,0.3-0.2,0.2-0.4
			c-0.1-0.1-0.1-0.1-0.3-0.1l-0.3,0l-0.1-0.1c-0.1-0.1-0.1-0.2,0.1-0.4c0.2-0.2,0.2-0.3,0.1-0.4c-0.1-0.1-0.1-0.1-0.3,0
			c-0.2,0.1-0.3,0.1-0.4,0c-0.1-0.1-0.1-0.2,0.1-0.4C15,9.5,15.1,9.4,15,9.3c-0.1-0.1-0.2-0.1-0.4,0.1c-0.1,0.1-0.2,0.1-0.2,0.1
			c-0.1,0-0.2-0.1-0.3-0.1c0-0.1,0-0.1,0-0.3c0.1-0.3,0.1-0.3-0.1-0.4c-0.1-0.1-0.2,0-0.3,0.2C13.6,9,13.6,9,13.5,9
			c-0.1,0-0.1,0-0.2-0.1c-0.1-0.1-0.1-0.1-0.1-0.3c0-0.2,0-0.3-0.1-0.3c-0.1-0.1-0.3,0-0.4,0.3l-0.1,0.2l-0.1,0
			c-0.1,0-0.2,0-0.2-0.1c0,0,0-0.1-0.1-0.2C12.2,8.2,12.2,8.1,12,8.2z M12.5,9.3c1.3,0.1,2.2,1,2.6,2.2c0.1,0.3,0.1,0.9,0,1.2
			c-0.1,0.5-0.3,1-0.7,1.4c-0.6,0.7-1.4,1-2.2,0.9c-0.6,0-1-0.1-1.4-0.4c-0.5-0.4-1-0.9-1.2-1.6c-0.1-0.2-0.1-0.2-0.1-0.8
			c0-0.6,0-0.6,0.1-0.8c0.1-0.4,0.4-0.8,0.7-1.1c0.5-0.5,1.1-0.8,1.8-0.9c0.1,0,0.2,0,0.3,0C12.2,9.2,12.4,9.3,12.5,9.3z"/>
		<path id="XMLID_116_" class="st1" d="M11.8,9.4c-0.9,0.2-1.6,0.7-2,1.5c-0.2,0.4-0.2,0.6-0.3,1.1c0,0.4,0,0.7,0.2,1.1
			c0.3,0.9,1.1,1.6,2.1,1.8c0.3,0.1,0.8,0.1,1.1,0c1-0.2,1.8-0.9,2.1-1.9c0.1-0.2,0.1-0.3,0.1-0.6c0-0.7-0.1-1.1-0.4-1.6
			C14,9.7,12.9,9.2,11.8,9.4z M12.6,11.5c0.1,0.1,0.2,0.2,0.3,0.3c0.1,0.1,0.1,0.5,0,0.6c-0.1,0.3-0.6,0.5-0.9,0.3
			c-0.3-0.1-0.5-0.6-0.4-0.9c0.1-0.2,0.2-0.3,0.4-0.4c0.1-0.1,0.2-0.1,0.3-0.1C12.4,11.5,12.5,11.5,12.6,11.5z"/>
		<path id="XMLID_81_" class="st1" d="M17.4,11.1c0,0-0.1,0.1,0,0.4c0,0.3,0,0.3-0.1,0.4c-0.1,0.1-0.2,0.1-0.4-0.1
			c-0.2-0.1-0.3-0.2-0.4-0.1c-0.1,0.1-0.1,0.2,0,0.4c0.1,0.2,0.1,0.3,0.1,0.4c0,0.1-0.1,0.1-0.4,0c-0.3-0.1-0.4-0.1-0.4,0.1
			c0,0.1,0,0.1,0.2,0.3c0.2,0.2,0.2,0.2,0.2,0.3c0,0.1-0.1,0.1-0.5,0.2c-0.1,0-0.2,0.1-0.2,0.1c-0.1,0.1,0,0.3,0.3,0.4
			c0.3,0.1,0.3,0.1,0.3,0.3c0,0.1-0.1,0.2-0.3,0.4c-0.1,0.1-0.1,0.1-0.1,0.2c0,0.1,0,0.1,0.1,0.1c0.1,0.1,0.1,0.1,0.2,0
			c0.5-0.1,0.4-0.1,0.5,0c0,0.1,0.1,0.1,0.1,0.1c0,0-0.1,0.1-0.1,0.2c-0.2,0.3-0.2,0.3-0.1,0.4c0,0,0.1,0.1,0.1,0.1s0.1-0.1,0.3-0.1
			c0.3-0.1,0.3-0.1,0.4-0.1c0.1,0.1,0.1,0.1,0,0.4c0,0.1,0,0.2,0,0.2c0,0.1,0.1,0.2,0.2,0.2c0.1,0,0.1,0,0.3-0.3
			c0.2-0.3,0.4-0.2,0.4,0.3c0,0.2,0.1,0.3,0.2,0.3s0.2-0.1,0.3-0.3c0.1-0.4,0.3-0.4,0.5,0c0.1,0.2,0.2,0.2,0.3,0.2l0.1,0l0-0.3
			c0-0.3,0-0.4,0.2-0.4c0.1,0,0.1,0,0.2,0.1c0.2,0.2,0.4,0.3,0.5,0.1c0.1-0.1,0.1-0.2,0-0.3c-0.2-0.3-0.2-0.5-0.1-0.5
			c0,0,0.2,0,0.3,0l0.3,0l0.1-0.1c0,0,0.1-0.1,0.1-0.1c0,0-0.1-0.1-0.2-0.2c-0.3-0.2-0.3-0.3-0.1-0.4c0.1-0.1,0.1-0.1,0.3-0.1
			c0.3,0,0.3-0.1,0.3-0.3c0-0.1,0-0.1-0.4-0.2c-0.2-0.1-0.2-0.1-0.2-0.2c0-0.1,0.1-0.2,0.3-0.3c0.2-0.1,0.2-0.1,0.2-0.3l0-0.1h-0.3
			c-0.4,0-0.4,0-0.5-0.1c0-0.1,0-0.2,0.2-0.4c0.1-0.2,0.1-0.2,0.1-0.3c-0.1-0.2-0.2-0.2-0.5,0c-0.2,0.1-0.3,0.1-0.3,0
			c0-0.1,0-0.1,0-0.3c0.1-0.3,0.1-0.3-0.1-0.4c-0.1-0.1-0.2,0-0.3,0.2c-0.1,0.2-0.2,0.3-0.3,0.2c-0.1,0-0.2-0.2-0.2-0.4
			c0-0.2-0.1-0.3-0.2-0.3c-0.1,0-0.2,0.1-0.2,0.2c0,0.2-0.1,0.3-0.2,0.3c-0.1,0-0.1,0-0.2-0.2c-0.1-0.1-0.2-0.2-0.2-0.2
			C17.6,11.1,17.5,11.1,17.4,11.1z"/>
		<path id="XMLID_111_" class="st1" d="M15.9,18.6v1.3l0.9,0c1,0,1.4-0.1,1.7-0.1c0.2-0.1,0.9-0.3,1.1-0.4c0.2-0.1,0.2-0.1,0.2-0.7
			c0-0.6,0-0.7-0.1-0.8c-0.1-0.1-0.9-0.3-1.3-0.4c-0.3-0.1-0.3-0.1-1.1-0.1c-0.4,0-0.9,0-1.1,0l-0.3,0L15.9,18.6L15.9,18.6z
			 M17.3,18.2c0.1,0,0.1,0.1,0.2,0.1c0.1,0,0.2,0.1,0.3,0.2c0.2,0.2,0.3,0.2,0.5,0.2c0.2,0,0.2,0,0.3-0.1c0.1-0.1,0.2-0.1,0.3,0
			c0,0,0.1,0.1,0.1,0.1c0,0.2-0.2,0.3-0.4,0.1c-0.1-0.1-0.2-0.1-0.5,0.1c-0.2,0.2-0.3,0.2-0.5,0.2c-0.1,0-0.1,0-0.1,0
			c0,0-0.1,0-0.1,0c-0.1,0-0.1-0.1-0.1-0.2c0-0.1,0-0.1,0.1-0.1c0.1,0,0.1,0,0.1,0c0,0,0.2,0,0.3,0c0.1,0,0.3-0.2,0.3-0.2
			c0,0-0.1,0-0.1-0.1c-0.1,0-0.1,0-0.1-0.1c0,0-0.1-0.1-0.2-0.2c-0.1-0.1-0.1-0.1-0.3-0.1c-0.1,0-0.2,0-0.2,0c-0.1,0-0.1,0-0.1-0.1
			C17,18.2,17.1,18.1,17.3,18.2z M16.9,18.6c0,0,0,0.1-0.1,0.1c-0.1,0.1-0.1,0.1-0.1,0c-0.1,0-0.1-0.1,0-0.1
			C16.8,18.6,16.8,18.6,16.9,18.6z"/>
		<path id="XMLID_107_" class="st1" d="M14.1,18.5v0.9h0.7h0.7v-0.9v-0.9h-0.7h-0.7V18.5z M14.9,18.2v0.1h-0.1c-0.1,0-0.1,0-0.1-0.1
			c0-0.1,0-0.2,0.1-0.2C14.9,18.1,14.9,18.1,14.9,18.2z M14.9,18.8c0,0.1,0,0.2,0,0.2c0,0-0.1,0-0.1,0c-0.1,0-0.1,0-0.1-0.1
			c0-0.1,0-0.1,0-0.1C14.7,18.8,14.9,18.8,14.9,18.8z"/>
		<path id="XMLID_74_" class="st1" d="M6.5,20.6c0,0-0.1,0.3-0.1,0.7c0,0.3-0.1,0.6-0.1,0.6c0,0,0-0.1-0.1-0.7l-0.1-0.6H5.6H5.1v1.5
			v1.5h0.3h0.3v-0.8c0-0.5,0-0.8,0-0.8s0.1,0.3,0.1,0.8S6,23.6,6,23.6c0,0,0.1,0.1,0.3,0.1c0.2,0,0.2,0,0.3-0.1c0,0,0.1-0.4,0.1-0.7
			c0.1-0.4,0.1-0.7,0.1-0.8c0-0.1,0-0.1,0-0.1c0,0,0,0.4,0,0.8v0.8h0.1c0.1,0,0.2,0,0.3,0l0.2,0v-1.5v-1.5H7.1c-0.2,0-0.4,0-0.5,0
			C6.6,20.6,6.5,20.6,6.5,20.6z"/>
		<path id="XMLID_73_" class="st1" d="M13.2,22.2v1.5h0.4h0.4l0-1c0-0.5,0-1,0-1.1c0,0,0-0.1,0.1-0.1c0.1,0,0.1,0.1,0.1,1.1v1h0.4
			h0.4l0-1c0-1.2,0-1.3-0.1-1.4c-0.1-0.2-0.5-0.2-0.7-0.1l-0.1,0.1V21v-0.3h-0.3h-0.4V22.2z"/>
		<path id="XMLID_72_" class="st1" d="M22,20.7c0,0,0,0.6,0,1.2c0,1.2,0,1.2-0.1,1.3c0,0-0.1,0-0.1,0h-0.1v0.3v0.3l0.3,0
			c0.5,0,0.7-0.1,0.7-0.4c0-0.1,0-0.7,0-1.4v-1.3h-0.4C22.1,20.7,22,20.7,22,20.7z"/>
		<path id="XMLID_101_" class="st1" d="M23.1,20.7c0,0,0,0.7,0,1.5v1.5l0.3,0c0.1,0,0.3,0,0.4,0h0.1V23v-0.7h0.1
			c0.1,0,0.1,0.1,0.2,0.7l0,0.6h0.4h0.4l0-0.7c0-0.7,0-0.7-0.1-0.7c0,0-0.1-0.1-0.1-0.1c-0.1-0.1-0.1-0.1,0-0.2
			c0.2-0.1,0.2-0.2,0.2-0.5c0-0.3,0-0.3-0.1-0.5c-0.1-0.2-0.2-0.3-0.5-0.3C24.1,20.7,23.1,20.6,23.1,20.7z M24.1,21.3
			c0,0.1,0,0.4,0,0.5c0,0-0.1,0-0.1,0h-0.1v-0.3c0-0.2,0-0.3,0-0.3c0,0,0,0,0.1,0C24,21.2,24,21.2,24.1,21.3z"/>
		<path id="XMLID_98_" class="st1" d="M8.3,21.2c-0.1,0.1-0.3,0.2-0.4,0.4c-0.1,0.1-0.1,0.2-0.1,0.8c0,0.4,0,0.7,0,0.8
			c0.1,0.3,0.2,0.4,0.6,0.5c0.4,0.1,0.8,0,0.9-0.2c0.2-0.2,0.2-0.2,0.2-1c0-0.9,0-0.8-0.3-1.1c-0.1-0.1-0.2-0.1-0.3-0.2
			C8.7,21.2,8.4,21.2,8.3,21.2z M8.7,21.8c0,0.1,0,0.4,0,0.8c0,0.6,0,0.7-0.1,0.7c-0.1,0.1-0.1,0-0.1-0.7c0-0.8,0-0.9,0.1-0.9
			C8.7,21.6,8.7,21.7,8.7,21.8z"/>
		<path id="XMLID_66_" class="st1" d="M10.8,21.2c-0.1,0-0.1,0.1-0.2,0.1l-0.1,0.1v-0.1v-0.1h-0.3c-0.2,0-0.3,0-0.4,0l-0.1,0v1.2
			v1.2h0.4c0.3,0,0.4,0,0.4-0.1c0,0,0-0.3,0-0.6s0-0.6,0-0.7c0-0.2,0-0.2,0.1-0.3c0.1,0,0.1-0.1,0.2-0.1l0.1,0v-0.4
			C11,21.1,11,21.1,10.8,21.2z"/>
		<path id="XMLID_94_" class="st1" d="M12.2,21.2c-0.1,0-0.1,0.1-0.2,0.1c-0.1,0.1-0.1,0.1-0.1,0c0-0.1-0.1-0.1-0.5-0.1h-0.3v1.4
			v1.4h0.4h0.4v-0.3c0-0.1,0-0.3,0-0.3c0,0,0.1,0,0.1,0.1c0.1,0.1,0.3,0.1,0.5,0.1c0.1,0,0.2,0,0.3-0.1l0.1-0.1v-1
			c0-0.9,0-1-0.1-1.1C12.8,21.2,12.5,21.1,12.2,21.2z M12.2,21.7c0,0,0,0.4,0,0.8c0,0.7,0,0.8-0.1,0.8c-0.1,0-0.1-0.1-0.1-0.8
			c0-0.4,0-0.7,0-0.8C12,21.6,12.1,21.6,12.2,21.7z"/>
		<path id="XMLID_91_" class="st1" d="M15.8,21.2c-0.2,0-0.4,0.2-0.5,0.3l-0.1,0.2v0.7c0,0.8,0,0.9,0.2,1.1c0.2,0.2,0.3,0.2,0.7,0.2
			c0.3,0,0.3,0,0.5-0.1c0.2-0.1,0.3-0.3,0.3-0.4c0-0.1,0-0.2,0-0.3l0-0.2h-0.4h-0.4V23c0,0.2,0,0.3-0.1,0.3c0,0.1-0.1,0.1-0.1,0
			c-0.1,0-0.1-0.1-0.1-0.5v-0.3h0.5H17l0-0.3c0-0.7-0.2-0.9-0.6-1C16.3,21.2,15.9,21.2,15.8,21.2z M16.2,21.7c0,0,0,0.1,0,0.2
			c0,0.1,0,0.1-0.1,0.1c-0.1,0-0.1,0-0.1-0.2C16,21.7,16,21.6,16.2,21.7C16.1,21.6,16.1,21.6,16.2,21.7z"/>
		<path id="XMLID_60_" class="st1" d="M19.7,21.2c-0.2,0.1-0.3,0.1-0.3,0.2c-0.1,0.1-0.1,0.1-0.1,0.4c0,0.3,0,0.3,0.1,0.4
			c0.1,0.1,0.1,0.2,0.5,0.4c0.3,0.2,0.4,0.3,0.4,0.4s-0.1,0.2-0.1,0.2c-0.1,0-0.1-0.1-0.1-0.3v-0.1h-0.3h-0.3l0,0.2
			c0,0.4,0.2,0.6,0.4,0.7c0.2,0.1,0.6,0.1,0.8,0c0.3-0.1,0.4-0.3,0.4-0.7c0-0.4-0.1-0.5-0.5-0.8c-0.4-0.2-0.5-0.3-0.4-0.5
			c0-0.1,0.1-0.1,0.1-0.1c0.1,0,0.1,0.1,0.1,0.3V22h0.3h0.3v-0.1c0-0.2-0.1-0.4-0.2-0.5c-0.1-0.1-0.2-0.1-0.3-0.2
			C20.2,21.2,19.8,21.2,19.7,21.2z"/>
		<path id="XMLID_31_" class="st1" d="M17.2,22.3c0,0.6,0,1.1,0,1.2c0.1,0.3,0.5,0.4,0.8,0.2l0.1-0.1v0.1c0,0.1,0.1,0.1,0.5,0.1
			l0.3,0v-1.2v-1.2h-0.4h-0.4v1v1h-0.1H18l0-0.5c0-0.3,0-0.8,0-1v-0.5h-0.4h-0.4L17.2,22.3L17.2,22.3z"/>
	</g>
	<path id="XMLID_29_" class="st1" d="M14.7,15c0,0.2,0,0.3,0,0.3s0.1,0,0.3,0l0.3,0V15v-0.3H15h-0.3L14.7,15z"/>
</g>
</svg>
